<?xml version="1.0" standalone="no"?>
<svg xmlns:xlink="http://www.w3.org/1999/xlink" id="wave" style="transform:rotate(0deg); transition: 0.3s" viewBox="0 0 1440 470" version="1.1" xmlns="http://www.w3.org/2000/svg"><defs><linearGradient id="sw-gradient-0" x1="0" x2="0" y1="1" y2="0"><stop stop-color="rgba(243, 106, 62, 1)" offset="0%"/><stop stop-color="rgba(255, 179, 11, 1)" offset="100%"/></linearGradient></defs><path style="transform:translate(0, 0px); opacity:1" fill="url(#sw-gradient-0)" d="M0,235L26.7,227.2C53.3,219,107,204,160,211.5C213.3,219,267,251,320,258.5C373.3,266,427,251,480,242.8C533.3,235,587,235,640,266.3C693.3,298,747,360,800,376C853.3,392,907,360,960,305.5C1013.3,251,1067,172,1120,133.2C1173.3,94,1227,94,1280,109.7C1333.3,125,1387,157,1440,203.7C1493.3,251,1547,313,1600,297.7C1653.3,282,1707,188,1760,125.3C1813.3,63,1867,31,1920,31.3C1973.3,31,2027,63,2080,94C2133.3,125,2187,157,2240,195.8C2293.3,235,2347,282,2400,321.2C2453.3,360,2507,392,2560,399.5C2613.3,407,2667,392,2720,383.8C2773.3,376,2827,376,2880,360.3C2933.3,345,2987,313,3040,289.8C3093.3,266,3147,251,3200,266.3C3253.3,282,3307,329,3360,305.5C3413.3,282,3467,188,3520,125.3C3573.3,63,3627,31,3680,23.5C3733.3,16,3787,31,3813,39.2L3840,47L3840,470L3813.3,470C3786.7,470,3733,470,3680,470C3626.7,470,3573,470,3520,470C3466.7,470,3413,470,3360,470C3306.7,470,3253,470,3200,470C3146.7,470,3093,470,3040,470C2986.7,470,2933,470,2880,470C2826.7,470,2773,470,2720,470C2666.7,470,2613,470,2560,470C2506.7,470,2453,470,2400,470C2346.7,470,2293,470,2240,470C2186.7,470,2133,470,2080,470C2026.7,470,1973,470,1920,470C1866.7,470,1813,470,1760,470C1706.7,470,1653,470,1600,470C1546.7,470,1493,470,1440,470C1386.7,470,1333,470,1280,470C1226.7,470,1173,470,1120,470C1066.7,470,1013,470,960,470C906.7,470,853,470,800,470C746.7,470,693,470,640,470C586.7,470,533,470,480,470C426.7,470,373,470,320,470C266.7,470,213,470,160,470C106.7,470,53,470,27,470L0,470Z"/></svg>